# xmcd CD database file
# Copyright (C) 1997 Ti Kan
#
# Track frame offsets:
#  150
#  23461
#  42678
#  61029
#  80064
#  97764
#  115953
#  135068
#  155475
#  178530
#  196577
#  215170
#  229892
#  248466
#  268099
#  285068
#
# Disc length: 4053 seconds
#
# Revision: 1
# Processed by: cddbd v1.4b41PL1 Copyright (c) Steve Scherf et al.
# Submitted via: CDWizzard Release:4.35
#
DISCID=c70fd310
DTITLE=Multi-Artists - In ya Ear
DYEAR=1900
DGENRE=
TTITLE0=Can't Nobody Hold Me DownTrack1
TTITLE1=You Should Know
TTITLE2=Sweet Love
TTITLE3=My Baby Mama
TTITLE4=Foundation
TTITLE5=Let's Talk About It
TTITLE6=My Heart Is Calling
TTITLE7=Saved For Someone Else
TTITLE8=I Love Me Some Him
TTITLE9=Belong To Me
TTITLE10=Seeing Is Believing
TTITLE11=Love Me For Free
TTITLE12=G.O.D.PT.III
TTITLE13=I'm Not Feeling You
TTITLE14=The Initate
TTITLE15=Brown Betty
EXTD=
EXTT0=
EXTT1=
EXTT2=
EXTT3=
EXTT4=
EXTT5=
EXTT6=
EXTT7=
EXTT8=
EXTT9=
EXTT10=
EXTT11=
EXTT12=
EXTT13=
EXTT14=
EXTT15=
PLAYORDER=
